<?xml version="1.0" encoding="utf-8" ?>
<svg xmlns="http://www.w3.org/2000/svg" xmlns:ev="http://www.w3.org/2001/xml-events" xmlns:xlink="http://www.w3.org/1999/xlink" baseProfile="full" height="190px" version="1.1" viewBox="0 0 155 190" width="155px">
  <defs/>
  <rect fill="#FFFFFF" height="190" rx="6" ry="6" width="155" x="0" y="0"/>
  <polygon fill="#FFD500" points="129.5,76.0 112.1,86.0 112.1,106.0 129.5,96.0" stroke="#333333" stroke-width="1.2"/>
  <polygon fill="#FFD500" points="129.5,56.0 112.1,66.0 112.1,86.0 129.5,76.0" stroke="#333333" stroke-width="1.2"/>
  <polygon fill="#FFD500" points="129.5,36.0 112.1,46.0 112.1,66.0 129.5,56.0" stroke="#333333" stroke-width="1.2"/>
  <polygon fill="#FFD500" points="112.1,86.0 94.8,96.0 94.8,116.0 112.1,106.0" stroke="#333333" stroke-width="1.2"/>
  <polygon fill="#FFD500" points="112.1,66.0 94.8,76.0 94.8,96.0 112.1,86.0" stroke="#333333" stroke-width="1.2"/>
  <polygon fill="#FFD500" points="112.1,46.0 94.8,56.0 94.8,76.0 112.1,66.0" stroke="#333333" stroke-width="1.2"/>
  <polygon fill="#FFD500" points="94.8,96.0 77.5,106.0 77.5,126.0 94.8,116.0" stroke="#333333" stroke-width="1.2"/>
  <polygon fill="#FFD500" points="94.8,76.0 77.5,86.0 77.5,106.0 94.8,96.0" stroke="#333333" stroke-width="1.2"/>
  <polygon fill="#FFD500" points="94.8,56.0 77.5,66.0 77.5,86.0 94.8,76.0" stroke="#333333" stroke-width="1.2"/>
  <polygon fill="#E00000" points="25.5,76.0 42.9,86.0 42.9,106.0 25.5,96.0" stroke="#333333" stroke-width="1.2"/>
  <polygon fill="#E00000" points="25.5,56.0 42.9,66.0 42.9,86.0 25.5,76.0" stroke="#333333" stroke-width="1.2"/>
  <polygon fill="#E00000" points="25.5,36.0 42.9,46.0 42.9,66.0 25.5,56.0" stroke="#333333" stroke-width="1.2"/>
  <polygon fill="#E00000" points="42.9,86.0 60.2,96.0 60.2,116.0 42.9,106.0" stroke="#333333" stroke-width="1.2"/>
  <polygon fill="#E00000" points="42.9,66.0 60.2,76.0 60.2,96.0 42.9,86.0" stroke="#333333" stroke-width="1.2"/>
  <polygon fill="#E00000" points="42.9,46.0 60.2,56.0 60.2,76.0 42.9,66.0" stroke="#333333" stroke-width="1.2"/>
  <polygon fill="#E00000" points="60.2,96.0 77.5,106.0 77.5,126.0 60.2,116.0" stroke="#333333" stroke-width="1.2"/>
  <polygon fill="#E00000" points="60.2,76.0 77.5,86.0 77.5,106.0 60.2,96.0" stroke="#333333" stroke-width="1.2"/>
  <polygon fill="#E00000" points="60.2,56.0 77.5,66.0 77.5,86.0 60.2,76.0" stroke="#333333" stroke-width="1.2"/>
  <polygon fill="#0051BA" points="77.5,6.0 94.8,16.0 77.5,26.0 60.2,16.0" stroke="#333333" stroke-width="1.2"/>
  <polygon fill="#0051BA" points="60.2,16.0 77.5,26.0 60.2,36.0 42.9,26.0" stroke="#333333" stroke-width="1.2"/>
  <polygon fill="#0051BA" points="42.9,26.0 60.2,36.0 42.9,46.0 25.5,36.0" stroke="#333333" stroke-width="1.2"/>
  <polygon fill="#0051BA" points="94.8,16.0 112.1,26.0 94.8,36.0 77.5,26.0" stroke="#333333" stroke-width="1.2"/>
  <polygon fill="#0051BA" points="77.5,26.0 94.8,36.0 77.5,46.0 60.2,36.0" stroke="#333333" stroke-width="1.2"/>
  <polygon fill="#0051BA" points="60.2,36.0 77.5,46.0 60.2,56.0 42.9,46.0" stroke="#333333" stroke-width="1.2"/>
  <polygon fill="#0051BA" points="112.1,26.0 129.5,36.0 112.1,46.0 94.8,36.0" stroke="#333333" stroke-width="1.2"/>
  <polygon fill="#0051BA" points="94.8,36.0 112.1,46.0 94.8,56.0 77.5,46.0" stroke="#333333" stroke-width="1.2"/>
  <polygon fill="#0051BA" points="77.5,46.0 94.8,56.0 77.5,66.0 60.2,56.0" stroke="#333333" stroke-width="1.2"/>
  <line stroke="#333333" stroke-width="1.5" x1="77.5" x2="129.5" y1="6.0" y2="36.0"/>
  <line stroke="#333333" stroke-width="1.5" x1="129.5" x2="129.5" y1="36.0" y2="96.0"/>
  <line stroke="#333333" stroke-width="1.5" x1="129.5" x2="77.5" y1="96.0" y2="126.0"/>
  <line stroke="#333333" stroke-width="1.5" x1="77.5" x2="25.5" y1="126.0" y2="96.0"/>
  <line stroke="#333333" stroke-width="1.5" x1="25.5" x2="25.5" y1="96.0" y2="36.0"/>
  <line stroke="#333333" stroke-width="1.5" x1="25.5" x2="77.5" y1="36.0" y2="6.0"/>
  <line stroke="#333333" stroke-width="1.5" x1="77.5" x2="25.5" y1="66.0" y2="36.0"/>
  <line stroke="#333333" stroke-width="1.5" x1="77.5" x2="129.5" y1="66.0" y2="36.0"/>
  <line stroke="#333333" stroke-width="1.5" x1="77.5" x2="77.5" y1="66.0" y2="126.0"/>
  <path d="M 94.8,40.0 L 95.9,40.7 L 97.0,41.4 L 98.1,42.3 L 99.1,43.3 L 100.1,44.3 L 101.1,45.4 L 102.1,46.5 L 103.0,47.8 L 103.8,49.0 L 104.6,50.3 L 105.4,51.7 L 106.0,53.1 L 106.6,54.5 L 107.2,55.9 L 107.6,57.3 L 108.0,58.7 L 108.3,60.0 L 108.5,61.4 L 107.70496280979,54.04962809790011" fill="none" stroke="#222222" stroke-dasharray="6,3" stroke-width="2.5"/>
  <polygon fill="#222222" points="108.7,64.0 103.72481404895005,54.44764297398411 111.68511157062996,53.65161322181611"/>
  <text fill="#222" font-family="sans-serif" font-size="24px" font-weight="bold" text-anchor="middle" x="77.5" y="184">z</text>
</svg>
