<?xml version="1.0" encoding="utf-8" ?>
<svg xmlns="http://www.w3.org/2000/svg" xmlns:ev="http://www.w3.org/2001/xml-events" xmlns:xlink="http://www.w3.org/1999/xlink" baseProfile="full" height="190px" version="1.1" viewBox="0 0 155 190" width="155px">
  <defs/>
  <rect fill="#FFFFFF" height="190" rx="6" ry="6" width="155" x="0" y="0"/>
  <polygon fill="#009E60" points="129.5,76.0 112.1,86.0 112.1,106.0 129.5,96.0" stroke="#333333" stroke-width="1.2"/>
  <polygon fill="#009E60" points="129.5,56.0 112.1,66.0 112.1,86.0 129.5,76.0" stroke="#333333" stroke-width="1.2"/>
  <polygon fill="#009E60" points="129.5,36.0 112.1,46.0 112.1,66.0 129.5,56.0" stroke="#333333" stroke-width="1.2"/>
  <polygon fill="#009E60" points="112.1,86.0 94.8,96.0 94.8,116.0 112.1,106.0" stroke="#333333" stroke-width="1.2"/>
  <polygon fill="#009E60" points="112.1,66.0 94.8,76.0 94.8,96.0 112.1,86.0" stroke="#333333" stroke-width="1.2"/>
  <polygon fill="#009E60" points="112.1,46.0 94.8,56.0 94.8,76.0 112.1,66.0" stroke="#333333" stroke-width="1.2"/>
  <polygon fill="#009E60" points="94.8,96.0 77.5,106.0 77.5,126.0 94.8,116.0" stroke="#333333" stroke-width="1.2"/>
  <polygon fill="#009E60" points="94.8,76.0 77.5,86.0 77.5,106.0 94.8,96.0" stroke="#333333" stroke-width="1.2"/>
  <polygon fill="#009E60" points="94.8,56.0 77.5,66.0 77.5,86.0 94.8,76.0" stroke="#333333" stroke-width="1.2"/>
  <polygon fill="#FFD500" points="25.5,76.0 42.9,86.0 42.9,106.0 25.5,96.0" stroke="#333333" stroke-width="1.2"/>
  <polygon fill="#FFD500" points="25.5,56.0 42.9,66.0 42.9,86.0 25.5,76.0" stroke="#333333" stroke-width="1.2"/>
  <polygon fill="#FFD500" points="25.5,36.0 42.9,46.0 42.9,66.0 25.5,56.0" stroke="#333333" stroke-width="1.2"/>
  <polygon fill="#E00000" points="42.9,86.0 60.2,96.0 60.2,116.0 42.9,106.0" stroke="#333333" stroke-width="1.2"/>
  <polygon fill="#E00000" points="42.9,66.0 60.2,76.0 60.2,96.0 42.9,86.0" stroke="#333333" stroke-width="1.2"/>
  <polygon fill="#E00000" points="42.9,46.0 60.2,56.0 60.2,76.0 42.9,66.0" stroke="#333333" stroke-width="1.2"/>
  <polygon fill="#E00000" points="60.2,96.0 77.5,106.0 77.5,126.0 60.2,116.0" stroke="#333333" stroke-width="1.2"/>
  <polygon fill="#E00000" points="60.2,76.0 77.5,86.0 77.5,106.0 60.2,96.0" stroke="#333333" stroke-width="1.2"/>
  <polygon fill="#E00000" points="60.2,56.0 77.5,66.0 77.5,86.0 60.2,76.0" stroke="#333333" stroke-width="1.2"/>
  <polygon fill="#FF8C00" points="77.5,6.0 94.8,16.0 77.5,26.0 60.2,16.0" stroke="#333333" stroke-width="1.2"/>
  <polygon fill="#FF8C00" points="60.2,16.0 77.5,26.0 60.2,36.0 42.9,26.0" stroke="#333333" stroke-width="1.2"/>
  <polygon fill="#FF8C00" points="42.9,26.0 60.2,36.0 42.9,46.0 25.5,36.0" stroke="#333333" stroke-width="1.2"/>
  <polygon fill="#FFD500" points="94.8,16.0 112.1,26.0 94.8,36.0 77.5,26.0" stroke="#333333" stroke-width="1.2"/>
  <polygon fill="#FFD500" points="77.5,26.0 94.8,36.0 77.5,46.0 60.2,36.0" stroke="#333333" stroke-width="1.2"/>
  <polygon fill="#FFD500" points="60.2,36.0 77.5,46.0 60.2,56.0 42.9,46.0" stroke="#333333" stroke-width="1.2"/>
  <polygon fill="#FFD500" points="112.1,26.0 129.5,36.0 112.1,46.0 94.8,36.0" stroke="#333333" stroke-width="1.2"/>
  <polygon fill="#FFD500" points="94.8,36.0 112.1,46.0 94.8,56.0 77.5,46.0" stroke="#333333" stroke-width="1.2"/>
  <polygon fill="#FFD500" points="77.5,46.0 94.8,56.0 77.5,66.0 60.2,56.0" stroke="#333333" stroke-width="1.2"/>
  <line stroke="#333333" stroke-width="1.5" x1="77.5" x2="129.5" y1="6.0" y2="36.0"/>
  <line stroke="#333333" stroke-width="1.5" x1="129.5" x2="129.5" y1="36.0" y2="96.0"/>
  <line stroke="#333333" stroke-width="1.5" x1="129.5" x2="77.5" y1="96.0" y2="126.0"/>
  <line stroke="#333333" stroke-width="1.5" x1="77.5" x2="25.5" y1="126.0" y2="96.0"/>
  <line stroke="#333333" stroke-width="1.5" x1="25.5" x2="25.5" y1="96.0" y2="36.0"/>
  <line stroke="#333333" stroke-width="1.5" x1="25.5" x2="77.5" y1="36.0" y2="6.0"/>
  <line stroke="#333333" stroke-width="1.5" x1="77.5" x2="25.5" y1="66.0" y2="36.0"/>
  <line stroke="#333333" stroke-width="1.5" x1="77.5" x2="129.5" y1="66.0" y2="36.0"/>
  <line stroke="#333333" stroke-width="1.5" x1="77.5" x2="77.5" y1="66.0" y2="126.0"/>
  <path d="M 60.2,26.0 L 56.8,27.1 L 53.7,28.2 L 50.8,29.6 L 48.1,31.0 L 45.6,32.6 L 43.3,34.3 L 41.2,36.1 L 39.4,38.0 L 37.8,40.1 L 36.4,42.2 L 35.2,44.6 L 34.2,47.0 L 33.4,49.6 L 32.9,52.2 L 32.6,55.1 L 32.5,58.0 L 32.6,61.1 L 32.9,64.2 L 31.647264957019253,55.204951921556614" fill="none" stroke="#222222" stroke-width="5"/>
  <polygon fill="#222222" points="34.2,71.0 23.74974091779756,56.48131944304699 39.544788996240946,53.928584400066235"/>
  <text fill="#222" font-family="sans-serif" font-size="24px" font-weight="bold" text-anchor="middle" x="77.5" y="184">L</text>
</svg>
