<?xml version="1.0" encoding="utf-8" ?>
<svg xmlns="http://www.w3.org/2000/svg" xmlns:ev="http://www.w3.org/2001/xml-events" xmlns:xlink="http://www.w3.org/1999/xlink" baseProfile="full" height="231px" version="1.1" viewBox="43.5 -14.4 225.6 231.0" width="226px">
  <defs>
    <clipPath id="behind-clip">
      <path clip-rule="evenodd" d="M38.53094706985971,-19.4 h235.6056995668933 v241.0 h-235.6056995668933 Z M 155.0,44.0 L 205.6,61.0 L 163.1,81.2 L 112.6,64.2 Z M 112.6,130.2 L 163.1,147.2 L 163.1,81.2 L 112.6,64.2 Z M 205.6,127.0 L 163.1,147.2 L 163.1,81.2 L 205.6,61.0 Z"/>
    </clipPath>
  </defs>
  <rect fill="#FFFFFF" height="231.0" rx="8" ry="8" width="225.6056995668933" x="43.53094706985971" y="-14.399999999999999"/>
  <g>
    <path d="M 209.3,56.1 L 208.5,56.6 L 207.7,57.2 L 207.0,57.9 L 206.3,58.8 L 205.8,59.7 L 205.4,60.8 L 205.0,61.9 L 204.7,63.1 L 204.6,64.4 L 204.5,65.7 L 204.6,67.1 L 204.7,68.4 L 205.0,69.8 L 205.3,71.2 L 205.8,72.5 L 206.3,73.8 L 207.0,75.1 L 207.7,76.3 L 208.4,77.5 L 209.3,78.5 L 210.2,79.5 L 211.1,80.3 L 212.1,81.0 L 213.1,81.6 L 214.1,82.1 L 215.1,82.5 L 216.2,82.7 L 217.2,82.7 L 218.1,82.7 L 219.1,82.5 L 220.0,82.1 L 224.8,79.8 L 223.9,80.2 L 223.0,80.4 L 222.0,80.4 L 221.0,80.4 L 220.0,80.2 L 218.9,79.8 L 217.9,79.3 L 216.9,78.7 L 215.9,78.0 L 215.0,77.2 L 214.1,76.2 L 213.3,75.2 L 212.5,74.0 L 211.8,72.8 L 211.1,71.6 L 210.6,70.2 L 210.2,68.9 L 209.8,67.5 L 209.5,66.1 L 209.4,64.8 L 209.3,63.4 L 209.4,62.1 L 209.5,60.8 L 209.8,59.6 L 210.2,58.5 L 210.6,57.4 L 211.2,56.5 L 211.8,55.6 L 212.5,54.9 L 213.3,54.3 L 214.1,53.8 Z" fill="white" stroke="none"/>
    <path d="M 209.3,56.1 L 208.5,56.6 L 207.7,57.2 L 207.0,57.9 L 206.3,58.8 L 205.8,59.7 L 205.4,60.8 L 205.0,61.9 L 204.7,63.1 L 204.6,64.4 L 204.5,65.7 L 204.6,67.1 L 204.7,68.4 L 205.0,69.8 L 205.3,71.2 L 205.8,72.5 L 206.3,73.8 L 207.0,75.1 L 207.7,76.3 L 208.4,77.5 L 209.3,78.5 L 210.2,79.5 L 211.1,80.3 L 212.1,81.0 L 213.1,81.6 L 214.1,82.1 L 215.1,82.5 L 216.2,82.7 L 217.2,82.7 L 218.1,82.7 L 219.1,82.5 L 220.0,82.1" fill="none" stroke="#222222" stroke-linecap="round" stroke-linejoin="round" stroke-width="1.5"/>
    <path d="M 214.1,53.8 L 213.3,54.3 L 212.5,54.9 L 211.8,55.6 L 211.2,56.5 L 210.6,57.4 L 210.2,58.5 L 209.8,59.6 L 209.5,60.8 L 209.4,62.1 L 209.3,63.4 L 209.4,64.8 L 209.5,66.1 L 209.8,67.5 L 210.2,68.9 L 210.6,70.2 L 211.1,71.6 L 211.8,72.8 L 212.5,74.0 L 213.3,75.2 L 214.1,76.2 L 215.0,77.2 L 215.9,78.0 L 216.9,78.7 L 217.9,79.3 L 218.9,79.8 L 220.0,80.2 L 221.0,80.4 L 222.0,80.4 L 223.0,80.4 L 223.9,80.2 L 224.8,79.8" fill="none" stroke="#222222" stroke-linecap="round" stroke-linejoin="round" stroke-width="1.5"/>
    <line stroke="#222222" stroke-linecap="round" stroke-width="1.5" x1="209.3" x2="214.1" y1="56.1" y2="53.8"/>
    <line stroke="#222222" stroke-linecap="round" stroke-width="1.5" x1="220.0" x2="224.8" y1="82.1" y2="79.8"/>
  </g>
  <polygon fill="#FFD500" points="155.0,44.0 205.6,61.0 163.1,81.2 112.6,64.2" stroke="#333333" stroke-linejoin="round" stroke-width="1.5"/>
  <polygon fill="#E00000" points="112.6,130.2 163.1,147.2 163.1,81.2 112.6,64.2" stroke="#333333" stroke-linejoin="round" stroke-width="1.5"/>
  <polygon fill="#009E60" points="205.6,127.0 163.1,147.2 163.1,81.2 205.6,61.0" stroke="#333333" stroke-linejoin="round" stroke-width="1.5"/>
  <line stroke="#333333" stroke-linecap="round" stroke-width="1.5" x1="155.0" x2="205.6" y1="44.0" y2="61.0"/>
  <line stroke="#333333" stroke-linecap="round" stroke-width="1.5" x1="205.6" x2="205.6" y1="61.0" y2="127.0"/>
  <line stroke="#333333" stroke-linecap="round" stroke-width="1.5" x1="205.6" x2="163.1" y1="127.0" y2="147.2"/>
  <line stroke="#333333" stroke-linecap="round" stroke-width="1.5" x1="163.1" x2="112.6" y1="147.2" y2="130.2"/>
  <line stroke="#333333" stroke-linecap="round" stroke-width="1.5" x1="112.6" x2="112.6" y1="130.2" y2="64.2"/>
  <line stroke="#333333" stroke-linecap="round" stroke-width="1.5" x1="112.6" x2="155.0" y1="64.2" y2="44.0"/>
  <line stroke="#333333" stroke-linecap="round" stroke-width="1.5" x1="163.1" x2="112.6" y1="81.2" y2="64.2"/>
  <line stroke="#333333" stroke-linecap="round" stroke-width="1.5" x1="163.1" x2="205.6" y1="81.2" y2="61.0"/>
  <line stroke="#333333" stroke-linecap="round" stroke-width="1.5" x1="163.1" x2="163.1" y1="81.2" y2="147.2"/>
  <line stroke="#222222" stroke-linecap="round" stroke-width="1.5" x1="159.1" x2="159.1" y1="62.6" y2="29.6"/>
  <line stroke="#222222" stroke-linecap="round" stroke-width="1.5" x1="137.9" x2="99.7" y1="105.7" y2="123.9"/>
  <line stroke="#222222" stroke-linecap="round" stroke-width="1.5" x1="184.3" x2="223.1" y1="104.1" y2="117.1"/>
  <g>
    <path d="M 145.9,48.7 L 145.9,48.2 L 146.1,47.7 L 146.5,47.2 L 146.9,46.7 L 147.5,46.2 L 148.2,45.7 L 149.1,45.3 L 150.0,44.9 L 151.0,44.6 L 152.1,44.3 L 153.3,44.0 L 154.5,43.8 L 155.8,43.6 L 157.1,43.5 L 158.4,43.5 L 159.7,43.5 L 161.1,43.5 L 162.4,43.6 L 163.7,43.8 L 164.9,44.0 L 166.0,44.3 L 167.1,44.6 L 168.2,44.9 L 169.1,45.3 L 169.9,45.7 L 170.6,46.2 L 171.2,46.7 L 171.7,47.2 L 172.0,47.7 L 172.2,48.2 L 172.3,48.7 L 172.3,41.3 L 172.2,40.7 L 172.0,40.2 L 171.7,39.7 L 171.2,39.2 L 170.6,38.7 L 169.9,38.2 L 169.1,37.8 L 168.2,37.4 L 167.1,37.1 L 166.0,36.8 L 164.9,36.5 L 163.7,36.3 L 162.4,36.1 L 161.1,36.0 L 159.7,36.0 L 158.4,36.0 L 157.1,36.0 L 155.8,36.1 L 154.5,36.3 L 153.3,36.5 L 152.1,36.8 L 151.0,37.1 L 150.0,37.4 L 149.1,37.8 L 148.2,38.2 L 147.5,38.7 L 146.9,39.2 L 146.5,39.7 L 146.1,40.2 L 145.9,40.7 L 145.9,41.3 Z" fill="white" stroke="none"/>
    <path d="M 145.9,48.7 L 145.9,48.2 L 146.1,47.7 L 146.5,47.2 L 146.9,46.7 L 147.5,46.2 L 148.2,45.7 L 149.1,45.3 L 150.0,44.9 L 151.0,44.6 L 152.1,44.3 L 153.3,44.0 L 154.5,43.8 L 155.8,43.6 L 157.1,43.5 L 158.4,43.5 L 159.7,43.5 L 161.1,43.5 L 162.4,43.6 L 163.7,43.8 L 164.9,44.0 L 166.0,44.3 L 167.1,44.6 L 168.2,44.9 L 169.1,45.3 L 169.9,45.7 L 170.6,46.2 L 171.2,46.7 L 171.7,47.2 L 172.0,47.7 L 172.2,48.2 L 172.3,48.7" fill="none" stroke="#222222" stroke-linecap="round" stroke-linejoin="round" stroke-width="1.5"/>
    <path d="M 145.9,41.3 L 145.9,40.7 L 146.1,40.2 L 146.5,39.7 L 146.9,39.2 L 147.5,38.7 L 148.2,38.2 L 149.1,37.8 L 150.0,37.4 L 151.0,37.1 L 152.1,36.8 L 153.3,36.5 L 154.5,36.3 L 155.8,36.1 L 157.1,36.0 L 158.4,36.0 L 159.7,36.0 L 161.1,36.0 L 162.4,36.1 L 163.7,36.3 L 164.9,36.5 L 166.0,36.8 L 167.1,37.1 L 168.2,37.4 L 169.1,37.8 L 169.9,38.2 L 170.6,38.7 L 171.2,39.2 L 171.7,39.7 L 172.0,40.2 L 172.2,40.7 L 172.3,41.3" fill="none" stroke="#222222" stroke-linecap="round" stroke-linejoin="round" stroke-width="1.5"/>
    <line stroke="#222222" stroke-linecap="round" stroke-width="1.5" x1="145.9" x2="145.9" y1="48.7" y2="41.3"/>
    <line stroke="#222222" stroke-linecap="round" stroke-width="1.5" x1="172.3" x2="172.3" y1="48.7" y2="41.3"/>
  </g>
  <line stroke="#222222" stroke-linecap="round" stroke-width="1.5" x1="159.1" x2="159.1" y1="60.8" y2="29.2"/>
  <g>
    <path d="M 150.9,52.9 L 149.9,52.5 L 149.0,52.2 L 148.2,51.7 L 147.5,51.3 L 146.9,50.8 L 146.5,50.3 L 146.1,49.8 L 145.9,49.3 L 145.9,48.7 L 145.9,41.3 L 145.9,41.8 L 146.1,42.3 L 146.5,42.8 L 146.9,43.3 L 147.5,43.8 L 148.2,44.3 L 149.0,44.7 L 149.9,45.1 L 150.9,45.4 Z" fill="white" stroke="none"/>
    <path d="M 172.3,48.7 L 172.2,49.3 L 172.0,49.8 L 171.6,50.4 L 171.1,50.9 L 170.5,51.4 L 169.7,51.8 L 168.9,52.3 L 167.9,52.7 L 167.9,45.2 L 168.9,44.8 L 169.7,44.4 L 170.5,43.9 L 171.1,43.4 L 171.6,42.9 L 172.0,42.4 L 172.2,41.8 L 172.3,41.3 Z" fill="white" stroke="none"/>
    <path d="M 150.9,52.9 L 149.9,52.5 L 149.0,52.2 L 148.2,51.7 L 147.5,51.3 L 146.9,50.8 L 146.5,50.3 L 146.1,49.8 L 145.9,49.3 L 145.9,48.7" fill="none" stroke="#222222" stroke-linecap="round" stroke-linejoin="round" stroke-width="1.5"/>
    <path d="M 150.9,45.4 L 149.9,45.1 L 149.0,44.7 L 148.2,44.3 L 147.5,43.8 L 146.9,43.3 L 146.5,42.8 L 146.1,42.3 L 145.9,41.8 L 145.9,41.3" fill="none" stroke="#222222" stroke-linecap="round" stroke-linejoin="round" stroke-width="1.5"/>
    <line stroke="#222222" stroke-linecap="round" stroke-width="1.5" x1="150.9" x2="150.9" y1="52.9" y2="45.4"/>
    <line stroke="#222222" stroke-linecap="round" stroke-width="1.5" x1="145.9" x2="145.9" y1="48.7" y2="41.3"/>
    <path d="M 172.3,48.7 L 172.2,49.3 L 172.0,49.8 L 171.6,50.4 L 171.1,50.9 L 170.5,51.4 L 169.7,51.8 L 168.9,52.3 L 167.9,52.7" fill="none" stroke="#222222" stroke-linecap="round" stroke-linejoin="round" stroke-width="1.5"/>
    <path d="M 172.3,41.3 L 172.2,41.8 L 172.0,42.4 L 171.6,42.9 L 171.1,43.4 L 170.5,43.9 L 169.7,44.4 L 168.9,44.8 L 167.9,45.2" fill="none" stroke="#222222" stroke-linecap="round" stroke-linejoin="round" stroke-width="1.5"/>
    <line stroke="#222222" stroke-linecap="round" stroke-width="1.5" x1="172.3" x2="172.3" y1="48.7" y2="41.3"/>
    <line stroke="#222222" stroke-linecap="round" stroke-width="1.5" x1="167.9" x2="167.9" y1="52.7" y2="45.2"/>
  </g>
  <g>
    <path d="M 172.3,48.7 L 172.2,49.3 L 172.0,49.8 L 171.6,50.4 L 171.1,50.9 L 170.5,51.4 L 169.7,51.8 L 168.9,52.3 L 167.9,52.7 L 167.9,58.3 L 159.1,50.3 L 167.9,39.6 L 167.9,45.2 L 168.9,44.8 L 169.7,44.4 L 170.5,43.9 L 171.1,43.4 L 171.6,42.9 L 172.0,42.4 L 172.2,41.8 L 172.3,41.3 Z" fill="white" stroke="none"/>
    <path d="M 172.3,48.7 L 172.2,49.3 L 172.0,49.8 L 171.6,50.4 L 171.1,50.9 L 170.5,51.4 L 169.7,51.8 L 168.9,52.3 L 167.9,52.7" fill="none" stroke="#222222" stroke-linecap="round" stroke-linejoin="round" stroke-width="1.5"/>
    <path d="M 172.3,41.3 L 172.2,41.8 L 172.0,42.4 L 171.6,42.9 L 171.1,43.4 L 170.5,43.9 L 169.7,44.4 L 168.9,44.8 L 167.9,45.2" fill="none" stroke="#222222" stroke-linecap="round" stroke-linejoin="round" stroke-width="1.5"/>
    <line stroke="#222222" stroke-linecap="round" stroke-width="1.5" x1="172.3" x2="172.3" y1="48.7" y2="41.3"/>
    <path d="M 167.9,52.7 L 167.9,58.3 L 159.1,50.3 L 167.9,39.6 L 167.9,45.2" fill="white" stroke="#222222" stroke-linecap="round" stroke-linejoin="round" stroke-width="1.5"/>
  </g>
  <g>
    <path d="M 172.3,153.5 L 172.2,152.9 L 172.0,152.4 L 171.7,151.9 L 171.2,151.4 L 170.6,150.9 L 169.9,150.4 L 169.1,150.0 L 168.2,149.6 L 167.1,149.3 L 166.0,149.0 L 164.9,148.7 L 163.7,148.5 L 162.4,148.3 L 161.1,148.2 L 159.7,148.2 L 158.4,148.2 L 157.1,148.2 L 155.8,148.3 L 154.5,148.5 L 153.3,148.7 L 152.1,149.0 L 151.0,149.3 L 150.0,149.6 L 149.1,150.0 L 148.2,150.4 L 147.5,150.9 L 146.9,151.4 L 146.5,151.9 L 146.1,152.4 L 145.9,152.9 L 145.9,153.5 L 145.9,160.9 L 145.9,160.4 L 146.1,159.9 L 146.5,159.4 L 146.9,158.9 L 147.5,158.4 L 148.2,157.9 L 149.1,157.5 L 150.0,157.1 L 151.0,156.8 L 152.1,156.5 L 153.3,156.2 L 154.5,156.0 L 155.8,155.8 L 157.1,155.7 L 158.4,155.7 L 159.7,155.7 L 161.1,155.7 L 162.4,155.8 L 163.7,156.0 L 164.9,156.2 L 166.0,156.5 L 167.1,156.8 L 168.2,157.1 L 169.1,157.5 L 169.9,157.9 L 170.6,158.4 L 171.2,158.9 L 171.7,159.4 L 172.0,159.9 L 172.2,160.4 L 172.3,160.9 Z" fill="white" stroke="none"/>
    <path d="M 172.3,153.5 L 172.2,152.9 L 172.0,152.4 L 171.7,151.9 L 171.2,151.4 L 170.6,150.9 L 169.9,150.4 L 169.1,150.0 L 168.2,149.6 L 167.1,149.3 L 166.0,149.0 L 164.9,148.7 L 163.7,148.5 L 162.4,148.3 L 161.1,148.2 L 159.7,148.2 L 158.4,148.2 L 157.1,148.2 L 155.8,148.3 L 154.5,148.5 L 153.3,148.7 L 152.1,149.0 L 151.0,149.3 L 150.0,149.6 L 149.1,150.0 L 148.2,150.4 L 147.5,150.9 L 146.9,151.4 L 146.5,151.9 L 146.1,152.4 L 145.9,152.9 L 145.9,153.5" fill="none" stroke="#222222" stroke-linecap="round" stroke-linejoin="round" stroke-width="1.5"/>
    <path d="M 172.3,160.9 L 172.2,160.4 L 172.0,159.9 L 171.7,159.4 L 171.2,158.9 L 170.6,158.4 L 169.9,157.9 L 169.1,157.5 L 168.2,157.1 L 167.1,156.8 L 166.0,156.5 L 164.9,156.2 L 163.7,156.0 L 162.4,155.8 L 161.1,155.7 L 159.7,155.7 L 158.4,155.7 L 157.1,155.7 L 155.8,155.8 L 154.5,156.0 L 153.3,156.2 L 152.1,156.5 L 151.0,156.8 L 150.0,157.1 L 149.1,157.5 L 148.2,157.9 L 147.5,158.4 L 146.9,158.9 L 146.5,159.4 L 146.1,159.9 L 145.9,160.4 L 145.9,160.9" fill="none" stroke="#222222" stroke-linecap="round" stroke-linejoin="round" stroke-width="1.5"/>
    <line stroke="#222222" stroke-linecap="round" stroke-width="1.5" x1="172.3" x2="172.3" y1="153.5" y2="160.9"/>
    <line stroke="#222222" stroke-linecap="round" stroke-width="1.5" x1="145.9" x2="145.9" y1="153.5" y2="160.9"/>
  </g>
  <g>
    <path d="M 167.2,157.6 L 168.2,157.3 L 169.1,156.9 L 169.9,156.5 L 170.6,156.0 L 171.2,155.5 L 171.7,155.0 L 172.0,154.5 L 172.2,154.0 L 172.3,153.5 L 172.3,160.9 L 172.2,161.5 L 172.0,162.0 L 171.7,162.5 L 171.2,163.0 L 170.6,163.5 L 169.9,163.9 L 169.1,164.4 L 168.2,164.7 L 167.2,165.1 Z" fill="white" stroke="none"/>
    <path d="M 145.9,153.5 L 145.9,154.0 L 146.2,154.6 L 146.5,155.1 L 147.0,155.6 L 147.6,156.1 L 148.4,156.6 L 149.3,157.0 L 150.2,157.4 L 150.2,164.9 L 149.3,164.5 L 148.4,164.0 L 147.6,163.6 L 147.0,163.1 L 146.5,162.6 L 146.2,162.0 L 145.9,161.5 L 145.9,160.9 Z" fill="white" stroke="none"/>
    <path d="M 167.2,157.6 L 168.2,157.3 L 169.1,156.9 L 169.9,156.5 L 170.6,156.0 L 171.2,155.5 L 171.7,155.0 L 172.0,154.5 L 172.2,154.0 L 172.3,153.5" fill="none" stroke="#222222" stroke-linecap="round" stroke-linejoin="round" stroke-width="1.5"/>
    <path d="M 167.2,165.1 L 168.2,164.7 L 169.1,164.4 L 169.9,163.9 L 170.6,163.5 L 171.2,163.0 L 171.7,162.5 L 172.0,162.0 L 172.2,161.5 L 172.3,160.9" fill="none" stroke="#222222" stroke-linecap="round" stroke-linejoin="round" stroke-width="1.5"/>
    <line stroke="#222222" stroke-linecap="round" stroke-width="1.5" x1="167.2" x2="167.2" y1="157.6" y2="165.1"/>
    <line stroke="#222222" stroke-linecap="round" stroke-width="1.5" x1="172.3" x2="172.3" y1="153.5" y2="160.9"/>
    <path d="M 145.9,153.5 L 145.9,154.0 L 146.2,154.6 L 146.5,155.1 L 147.0,155.6 L 147.6,156.1 L 148.4,156.6 L 149.3,157.0 L 150.2,157.4" fill="none" stroke="#222222" stroke-linecap="round" stroke-linejoin="round" stroke-width="1.5"/>
    <path d="M 145.9,160.9 L 145.9,161.5 L 146.2,162.0 L 146.5,162.6 L 147.0,163.1 L 147.6,163.6 L 148.4,164.0 L 149.3,164.5 L 150.2,164.9" fill="none" stroke="#222222" stroke-linecap="round" stroke-linejoin="round" stroke-width="1.5"/>
    <line stroke="#222222" stroke-linecap="round" stroke-width="1.5" x1="145.9" x2="145.9" y1="153.5" y2="160.9"/>
    <line stroke="#222222" stroke-linecap="round" stroke-width="1.5" x1="150.2" x2="150.2" y1="157.4" y2="164.9"/>
  </g>
  <line clip-path="url(#behind-clip)" stroke="#222222" stroke-linecap="round" stroke-width="1.5" x1="159.1" x2="159.1" y1="128.6" y2="172.6"/>
  <g>
    <path d="M 145.9,153.5 L 145.9,154.0 L 146.2,154.6 L 146.5,155.1 L 147.0,155.6 L 147.6,156.1 L 148.4,156.6 L 149.3,157.0 L 150.2,157.4 L 150.2,151.8 L 159.1,162.5 L 150.2,170.5 L 150.2,164.9 L 149.3,164.5 L 148.4,164.0 L 147.6,163.6 L 147.0,163.1 L 146.5,162.6 L 146.2,162.0 L 145.9,161.5 L 145.9,160.9 Z" fill="white" stroke="none"/>
    <path d="M 145.9,153.5 L 145.9,154.0 L 146.2,154.6 L 146.5,155.1 L 147.0,155.6 L 147.6,156.1 L 148.4,156.6 L 149.3,157.0 L 150.2,157.4" fill="none" stroke="#222222" stroke-linecap="round" stroke-linejoin="round" stroke-width="1.5"/>
    <path d="M 145.9,160.9 L 145.9,161.5 L 146.2,162.0 L 146.5,162.6 L 147.0,163.1 L 147.6,163.6 L 148.4,164.0 L 149.3,164.5 L 150.2,164.9" fill="none" stroke="#222222" stroke-linecap="round" stroke-linejoin="round" stroke-width="1.5"/>
    <line stroke="#222222" stroke-linecap="round" stroke-width="1.5" x1="145.9" x2="145.9" y1="153.5" y2="160.9"/>
    <path d="M 150.2,157.4 L 150.2,151.8 L 159.1,162.5 L 150.2,170.5 L 150.2,164.9" fill="white" stroke="#222222" stroke-linecap="round" stroke-linejoin="round" stroke-width="1.5"/>
  </g>
  <g>
    <path d="M 117.3,131.0 L 116.4,131.4 L 115.5,131.6 L 114.5,131.7 L 113.5,131.6 L 112.5,131.4 L 111.5,131.1 L 110.4,130.6 L 109.4,130.0 L 108.5,129.2 L 107.5,128.4 L 106.6,127.4 L 105.8,126.4 L 105.0,125.3 L 104.3,124.1 L 103.7,122.8 L 103.1,121.5 L 102.7,120.1 L 102.3,118.7 L 102.1,117.4 L 101.9,116.0 L 101.9,114.6 L 101.9,113.3 L 102.1,112.1 L 102.3,110.8 L 102.7,109.7 L 103.1,108.7 L 103.7,107.7 L 104.3,106.9 L 105.0,106.1 L 105.8,105.5 L 106.6,105.0 L 101.8,107.3 L 101.0,107.8 L 100.2,108.4 L 99.5,109.2 L 98.9,110.0 L 98.3,111.0 L 97.9,112.0 L 97.5,113.1 L 97.3,114.3 L 97.1,115.6 L 97.1,116.9 L 97.1,118.3 L 97.3,119.7 L 97.5,121.0 L 97.9,122.4 L 98.3,123.8 L 98.9,125.1 L 99.5,126.4 L 100.2,127.6 L 101.0,128.7 L 101.8,129.7 L 102.7,130.7 L 103.7,131.5 L 104.6,132.3 L 105.6,132.9 L 106.6,133.3 L 107.7,133.7 L 108.7,133.9 L 109.7,134.0 L 110.7,133.9 L 111.6,133.7 L 112.5,133.3 Z" fill="white" stroke="none"/>
    <path d="M 117.3,131.0 L 116.4,131.4 L 115.5,131.6 L 114.5,131.7 L 113.5,131.6 L 112.5,131.4 L 111.5,131.1 L 110.4,130.6 L 109.4,130.0 L 108.5,129.2 L 107.5,128.4 L 106.6,127.4 L 105.8,126.4 L 105.0,125.3 L 104.3,124.1 L 103.7,122.8 L 103.1,121.5 L 102.7,120.1 L 102.3,118.7 L 102.1,117.4 L 101.9,116.0 L 101.9,114.6 L 101.9,113.3 L 102.1,112.1 L 102.3,110.8 L 102.7,109.7 L 103.1,108.7 L 103.7,107.7 L 104.3,106.9 L 105.0,106.1 L 105.8,105.5 L 106.6,105.0" fill="none" stroke="#222222" stroke-linecap="round" stroke-linejoin="round" stroke-width="1.5"/>
    <path d="M 112.5,133.3 L 111.6,133.7 L 110.7,133.9 L 109.7,134.0 L 108.7,133.9 L 107.7,133.7 L 106.6,133.3 L 105.6,132.9 L 104.6,132.3 L 103.7,131.5 L 102.7,130.7 L 101.8,129.7 L 101.0,128.7 L 100.2,127.6 L 99.5,126.4 L 98.9,125.1 L 98.3,123.8 L 97.9,122.4 L 97.5,121.0 L 97.3,119.7 L 97.1,118.3 L 97.1,116.9 L 97.1,115.6 L 97.3,114.3 L 97.5,113.1 L 97.9,112.0 L 98.3,111.0 L 98.9,110.0 L 99.5,109.2 L 100.2,108.4 L 101.0,107.8 L 101.8,107.3" fill="none" stroke="#222222" stroke-linecap="round" stroke-linejoin="round" stroke-width="1.5"/>
    <line stroke="#222222" stroke-linecap="round" stroke-width="1.5" x1="117.3" x2="112.5" y1="131.0" y2="133.3"/>
    <line stroke="#222222" stroke-linecap="round" stroke-width="1.5" x1="106.6" x2="101.8" y1="105.0" y2="107.3"/>
  </g>
  <line stroke="#222222" stroke-linecap="round" stroke-width="1.5" x1="119.8" x2="99.4" y1="114.3" y2="124.0"/>
  <g>
    <path d="M 122.0,122.8 L 121.9,124.1 L 121.6,125.3 L 121.3,126.4 L 120.8,127.5 L 120.3,128.4 L 119.6,129.2 L 118.9,130.0 L 118.2,130.6 L 117.3,131.0 L 112.5,133.3 L 113.3,132.9 L 114.1,132.3 L 114.8,131.5 L 115.5,130.7 L 116.0,129.7 L 116.4,128.7 L 116.8,127.6 L 117.1,126.4 L 117.2,125.1 Z" fill="white" stroke="none"/>
    <path d="M 106.6,105.0 L 107.6,104.7 L 108.5,104.5 L 109.5,104.4 L 110.6,104.5 L 111.6,104.7 L 112.7,105.1 L 113.8,105.6 L 114.8,106.3 L 110.0,108.6 L 108.9,107.9 L 107.9,107.4 L 106.8,107.0 L 105.8,106.8 L 104.7,106.7 L 103.7,106.8 L 102.8,107.0 L 101.8,107.3 Z" fill="white" stroke="none"/>
    <path d="M 122.0,122.8 L 121.9,124.1 L 121.6,125.3 L 121.3,126.4 L 120.8,127.5 L 120.3,128.4 L 119.6,129.2 L 118.9,130.0 L 118.2,130.6 L 117.3,131.0" fill="none" stroke="#222222" stroke-linecap="round" stroke-linejoin="round" stroke-width="1.5"/>
    <path d="M 117.2,125.1 L 117.1,126.4 L 116.8,127.6 L 116.4,128.7 L 116.0,129.7 L 115.5,130.7 L 114.8,131.5 L 114.1,132.3 L 113.3,132.9 L 112.5,133.3" fill="none" stroke="#222222" stroke-linecap="round" stroke-linejoin="round" stroke-width="1.5"/>
    <line stroke="#222222" stroke-linecap="round" stroke-width="1.5" x1="122.0" x2="117.2" y1="122.8" y2="125.1"/>
    <line stroke="#222222" stroke-linecap="round" stroke-width="1.5" x1="117.3" x2="112.5" y1="131.0" y2="133.3"/>
    <path d="M 106.6,105.0 L 107.6,104.7 L 108.5,104.5 L 109.5,104.4 L 110.6,104.5 L 111.6,104.7 L 112.7,105.1 L 113.8,105.6 L 114.8,106.3" fill="none" stroke="#222222" stroke-linecap="round" stroke-linejoin="round" stroke-width="1.5"/>
    <path d="M 101.8,107.3 L 102.8,107.0 L 103.7,106.8 L 104.7,106.7 L 105.8,106.8 L 106.8,107.0 L 107.9,107.4 L 108.9,107.9 L 110.0,108.6" fill="none" stroke="#222222" stroke-linecap="round" stroke-linejoin="round" stroke-width="1.5"/>
    <line stroke="#222222" stroke-linecap="round" stroke-width="1.5" x1="106.6" x2="101.8" y1="105.0" y2="107.3"/>
    <line stroke="#222222" stroke-linecap="round" stroke-width="1.5" x1="114.8" x2="110.0" y1="106.3" y2="108.6"/>
  </g>
  <g>
    <path d="M 106.6,105.0 L 107.6,104.7 L 108.5,104.5 L 109.5,104.4 L 110.6,104.5 L 111.6,104.7 L 112.7,105.1 L 113.8,105.6 L 114.8,106.3 L 118.4,104.6 L 118.2,115.1 L 106.4,110.3 L 110.0,108.6 L 108.9,107.9 L 107.9,107.4 L 106.8,107.0 L 105.8,106.8 L 104.7,106.7 L 103.7,106.8 L 102.8,107.0 L 101.8,107.3 Z" fill="white" stroke="none"/>
    <path d="M 106.6,105.0 L 107.6,104.7 L 108.5,104.5 L 109.5,104.4 L 110.6,104.5 L 111.6,104.7 L 112.7,105.1 L 113.8,105.6 L 114.8,106.3" fill="none" stroke="#222222" stroke-linecap="round" stroke-linejoin="round" stroke-width="1.5"/>
    <path d="M 101.8,107.3 L 102.8,107.0 L 103.7,106.8 L 104.7,106.7 L 105.8,106.8 L 106.8,107.0 L 107.9,107.4 L 108.9,107.9 L 110.0,108.6" fill="none" stroke="#222222" stroke-linecap="round" stroke-linejoin="round" stroke-width="1.5"/>
    <line stroke="#222222" stroke-linecap="round" stroke-width="1.5" x1="106.6" x2="101.8" y1="105.0" y2="107.3"/>
    <path d="M 114.8,106.3 L 118.4,104.6 L 118.2,115.1 L 106.4,110.3 L 110.0,108.6" fill="white" stroke="#222222" stroke-linecap="round" stroke-linejoin="round" stroke-width="1.5"/>
  </g>
  <g>
    <path d="M 218.1,57.9 L 217.1,57.2 L 216.1,56.6 L 215.1,56.1 L 214.1,55.7 L 213.1,55.5 L 212.1,55.5 L 211.1,55.5 L 210.2,55.8 L 209.3,56.1 L 214.1,53.8 L 215.0,53.5 L 215.9,53.3 L 216.9,53.2 L 217.9,53.2 L 218.9,53.5 L 219.9,53.8 L 221.0,54.3 L 222.0,54.9 L 222.9,55.6 Z" fill="white" stroke="none"/>
    <path d="M 220.0,82.1 L 220.9,81.6 L 221.7,81.0 L 222.4,80.2 L 223.0,79.3 L 223.6,78.3 L 224.0,77.2 L 224.4,76.0 L 224.6,74.8 L 229.4,72.5 L 229.2,73.7 L 228.8,74.9 L 228.4,76.0 L 227.8,77.0 L 227.2,77.9 L 226.5,78.7 L 225.7,79.3 L 224.8,79.8 Z" fill="white" stroke="none"/>
    <path d="M 218.1,57.9 L 217.1,57.2 L 216.1,56.6 L 215.1,56.1 L 214.1,55.7 L 213.1,55.5 L 212.1,55.5 L 211.1,55.5 L 210.2,55.8 L 209.3,56.1" fill="none" stroke="#222222" stroke-linecap="round" stroke-linejoin="round" stroke-width="1.5"/>
    <path d="M 222.9,55.6 L 222.0,54.9 L 221.0,54.3 L 219.9,53.8 L 218.9,53.5 L 217.9,53.2 L 216.9,53.2 L 215.9,53.3 L 215.0,53.5 L 214.1,53.8" fill="none" stroke="#222222" stroke-linecap="round" stroke-linejoin="round" stroke-width="1.5"/>
    <line stroke="#222222" stroke-linecap="round" stroke-width="1.5" x1="218.1" x2="222.9" y1="57.9" y2="55.6"/>
    <line stroke="#222222" stroke-linecap="round" stroke-width="1.5" x1="209.3" x2="214.1" y1="56.1" y2="53.8"/>
    <path d="M 220.0,82.1 L 220.9,81.6 L 221.7,81.0 L 222.4,80.2 L 223.0,79.3 L 223.6,78.3 L 224.0,77.2 L 224.4,76.0 L 224.6,74.8" fill="none" stroke="#222222" stroke-linecap="round" stroke-linejoin="round" stroke-width="1.5"/>
    <path d="M 224.8,79.8 L 225.7,79.3 L 226.5,78.7 L 227.2,77.9 L 227.8,77.0 L 228.4,76.0 L 228.8,74.9 L 229.2,73.7 L 229.4,72.5" fill="none" stroke="#222222" stroke-linecap="round" stroke-linejoin="round" stroke-width="1.5"/>
    <line stroke="#222222" stroke-linecap="round" stroke-width="1.5" x1="220.0" x2="224.8" y1="82.1" y2="79.8"/>
    <line stroke="#222222" stroke-linecap="round" stroke-width="1.5" x1="224.6" x2="229.4" y1="74.8" y2="72.5"/>
  </g>
  <line clip-path="url(#behind-clip)" stroke="#222222" stroke-linecap="round" stroke-width="1.5" x1="180.3" x2="226.9" y1="85.5" y2="63.2"/>
  <circle cx="226.9" cy="63.2" fill="#222222" r="5"/>
  <g>
    <path d="M 220.0,82.1 L 220.9,81.6 L 221.7,81.0 L 222.4,80.2 L 223.0,79.3 L 223.6,78.3 L 224.0,77.2 L 224.4,76.0 L 224.6,74.8 L 221.0,76.5 L 225.6,63.9 L 233.0,70.8 L 229.4,72.5 L 229.2,73.7 L 228.8,74.9 L 228.4,76.0 L 227.8,77.0 L 227.2,77.9 L 226.5,78.7 L 225.7,79.3 L 224.8,79.8 Z" fill="white" stroke="none"/>
    <path d="M 220.0,82.1 L 220.9,81.6 L 221.7,81.0 L 222.4,80.2 L 223.0,79.3 L 223.6,78.3 L 224.0,77.2 L 224.4,76.0 L 224.6,74.8" fill="none" stroke="#222222" stroke-linecap="round" stroke-linejoin="round" stroke-width="1.5"/>
    <path d="M 224.8,79.8 L 225.7,79.3 L 226.5,78.7 L 227.2,77.9 L 227.8,77.0 L 228.4,76.0 L 228.8,74.9 L 229.2,73.7 L 229.4,72.5" fill="none" stroke="#222222" stroke-linecap="round" stroke-linejoin="round" stroke-width="1.5"/>
    <line stroke="#222222" stroke-linecap="round" stroke-width="1.5" x1="220.0" x2="224.8" y1="82.1" y2="79.8"/>
    <path d="M 224.6,74.8 L 221.0,76.5 L 225.6,63.9 L 233.0,70.8 L 229.4,72.5" fill="white" stroke="#222222" stroke-linecap="round" stroke-linejoin="round" stroke-width="1.5"/>
  </g>
  <g>
    <path d="M 212.4,98.6 L 213.1,98.9 L 213.8,99.4 L 214.4,100.0 L 215.0,100.7 L 215.5,101.5 L 216.0,102.5 L 216.3,103.5 L 216.6,104.6 L 216.8,105.9 L 216.9,107.1 L 216.9,108.5 L 216.9,109.8 L 216.7,111.2 L 216.5,112.6 L 216.2,114.0 L 215.8,115.4 L 215.3,116.7 L 214.7,118.0 L 214.1,119.3 L 213.5,120.4 L 212.8,121.5 L 212.0,122.5 L 211.2,123.4 L 210.4,124.1 L 209.5,124.8 L 208.7,125.3 L 207.8,125.6 L 207.0,125.9 L 206.1,126.0 L 205.3,125.9 L 204.5,125.7 L 210.2,127.7 L 211.0,127.9 L 211.8,127.9 L 212.7,127.8 L 213.5,127.6 L 214.4,127.2 L 215.3,126.7 L 216.1,126.0 L 216.9,125.3 L 217.7,124.4 L 218.5,123.4 L 219.2,122.3 L 219.9,121.2 L 220.5,119.9 L 221.0,118.6 L 221.5,117.3 L 221.9,115.9 L 222.2,114.5 L 222.4,113.1 L 222.6,111.7 L 222.7,110.4 L 222.6,109.1 L 222.5,107.8 L 222.3,106.6 L 222.1,105.4 L 221.7,104.4 L 221.3,103.5 L 220.8,102.6 L 220.2,101.9 L 219.5,101.3 L 218.8,100.8 L 218.1,100.5 Z" fill="white" stroke="none"/>
    <path d="M 212.4,98.6 L 213.1,98.9 L 213.8,99.4 L 214.4,100.0 L 215.0,100.7 L 215.5,101.5 L 216.0,102.5 L 216.3,103.5 L 216.6,104.6 L 216.8,105.9 L 216.9,107.1 L 216.9,108.5 L 216.9,109.8 L 216.7,111.2 L 216.5,112.6 L 216.2,114.0 L 215.8,115.4 L 215.3,116.7 L 214.7,118.0 L 214.1,119.3 L 213.5,120.4 L 212.8,121.5 L 212.0,122.5 L 211.2,123.4 L 210.4,124.1 L 209.5,124.8 L 208.7,125.3 L 207.8,125.6 L 207.0,125.9 L 206.1,126.0 L 205.3,125.9 L 204.5,125.7" fill="none" stroke="#222222" stroke-linecap="round" stroke-linejoin="round" stroke-width="1.5"/>
    <path d="M 218.1,100.5 L 218.8,100.8 L 219.5,101.3 L 220.2,101.9 L 220.8,102.6 L 221.3,103.5 L 221.7,104.4 L 222.1,105.4 L 222.3,106.6 L 222.5,107.8 L 222.6,109.1 L 222.7,110.4 L 222.6,111.7 L 222.4,113.1 L 222.2,114.5 L 221.9,115.9 L 221.5,117.3 L 221.0,118.6 L 220.5,119.9 L 219.9,121.2 L 219.2,122.3 L 218.5,123.4 L 217.7,124.4 L 216.9,125.3 L 216.1,126.0 L 215.3,126.7 L 214.4,127.2 L 213.5,127.6 L 212.7,127.8 L 211.8,127.9 L 211.0,127.9 L 210.2,127.7" fill="none" stroke="#222222" stroke-linecap="round" stroke-linejoin="round" stroke-width="1.5"/>
    <line stroke="#222222" stroke-linecap="round" stroke-width="1.5" x1="212.4" x2="218.1" y1="98.6" y2="100.5"/>
    <line stroke="#222222" stroke-linecap="round" stroke-width="1.5" x1="204.5" x2="210.2" y1="125.7" y2="127.7"/>
  </g>
  <line stroke="#222222" stroke-linecap="round" stroke-width="1.5" x1="199.2" x2="223.4" y1="109.1" y2="117.2"/>
  <g>
    <path d="M 204.9,101.8 L 205.7,101.0 L 206.6,100.2 L 207.4,99.6 L 208.3,99.1 L 209.1,98.7 L 210.0,98.5 L 210.8,98.4 L 211.6,98.4 L 212.4,98.6 L 218.1,100.5 L 217.3,100.3 L 216.5,100.3 L 215.7,100.4 L 214.8,100.6 L 214.0,101.0 L 213.1,101.5 L 212.3,102.1 L 211.5,102.9 L 210.7,103.7 Z" fill="white" stroke="none"/>
    <path d="M 204.5,125.7 L 203.8,125.4 L 203.0,124.9 L 202.4,124.3 L 201.8,123.5 L 201.3,122.7 L 200.8,121.7 L 200.5,120.6 L 200.2,119.4 L 206.0,121.3 L 206.2,122.5 L 206.6,123.6 L 207.0,124.6 L 207.5,125.5 L 208.1,126.2 L 208.8,126.8 L 209.5,127.3 L 210.2,127.7 Z" fill="white" stroke="none"/>
    <path d="M 204.9,101.8 L 205.7,101.0 L 206.6,100.2 L 207.4,99.6 L 208.3,99.1 L 209.1,98.7 L 210.0,98.5 L 210.8,98.4 L 211.6,98.4 L 212.4,98.6" fill="none" stroke="#222222" stroke-linecap="round" stroke-linejoin="round" stroke-width="1.5"/>
    <path d="M 210.7,103.7 L 211.5,102.9 L 212.3,102.1 L 213.1,101.5 L 214.0,101.0 L 214.8,100.6 L 215.7,100.4 L 216.5,100.3 L 217.3,100.3 L 218.1,100.5" fill="none" stroke="#222222" stroke-linecap="round" stroke-linejoin="round" stroke-width="1.5"/>
    <line stroke="#222222" stroke-linecap="round" stroke-width="1.5" x1="204.9" x2="210.7" y1="101.8" y2="103.7"/>
    <line stroke="#222222" stroke-linecap="round" stroke-width="1.5" x1="212.4" x2="218.1" y1="98.6" y2="100.5"/>
    <path d="M 204.5,125.7 L 203.8,125.4 L 203.0,124.9 L 202.4,124.3 L 201.8,123.5 L 201.3,122.7 L 200.8,121.7 L 200.5,120.6 L 200.2,119.4" fill="none" stroke="#222222" stroke-linecap="round" stroke-linejoin="round" stroke-width="1.5"/>
    <path d="M 210.2,127.7 L 209.5,127.3 L 208.8,126.8 L 208.1,126.2 L 207.5,125.5 L 207.0,124.6 L 206.6,123.6 L 206.2,122.5 L 206.0,121.3" fill="none" stroke="#222222" stroke-linecap="round" stroke-linejoin="round" stroke-width="1.5"/>
    <line stroke="#222222" stroke-linecap="round" stroke-width="1.5" x1="204.5" x2="210.2" y1="125.7" y2="127.7"/>
    <line stroke="#222222" stroke-linecap="round" stroke-width="1.5" x1="200.2" x2="206.0" y1="119.4" y2="121.3"/>
  </g>
  <g>
    <path d="M 204.5,125.7 L 203.8,125.4 L 203.0,124.9 L 202.4,124.3 L 201.8,123.5 L 201.3,122.7 L 200.8,121.7 L 200.5,120.6 L 200.2,119.4 L 195.9,117.9 L 203.8,110.6 L 210.3,122.7 L 206.0,121.3 L 206.2,122.5 L 206.6,123.6 L 207.0,124.6 L 207.5,125.5 L 208.1,126.2 L 208.8,126.8 L 209.5,127.3 L 210.2,127.7 Z" fill="white" stroke="none"/>
    <path d="M 204.5,125.7 L 203.8,125.4 L 203.0,124.9 L 202.4,124.3 L 201.8,123.5 L 201.3,122.7 L 200.8,121.7 L 200.5,120.6 L 200.2,119.4" fill="none" stroke="#222222" stroke-linecap="round" stroke-linejoin="round" stroke-width="1.5"/>
    <path d="M 210.2,127.7 L 209.5,127.3 L 208.8,126.8 L 208.1,126.2 L 207.5,125.5 L 207.0,124.6 L 206.6,123.6 L 206.2,122.5 L 206.0,121.3" fill="none" stroke="#222222" stroke-linecap="round" stroke-linejoin="round" stroke-width="1.5"/>
    <line stroke="#222222" stroke-linecap="round" stroke-width="1.5" x1="204.5" x2="210.2" y1="125.7" y2="127.7"/>
    <path d="M 200.2,119.4 L 195.9,117.9 L 203.8,110.6 L 210.3,122.7 L 206.0,121.3" fill="white" stroke="#222222" stroke-linecap="round" stroke-linejoin="round" stroke-width="1.5"/>
  </g>
  <g>
    <path d="M 97.3,89.8 L 98.1,90.0 L 98.9,90.0 L 99.8,89.9 L 100.6,89.7 L 101.5,89.3 L 102.3,88.8 L 103.2,88.1 L 104.0,87.4 L 104.8,86.5 L 105.6,85.5 L 106.3,84.4 L 107.0,83.3 L 107.6,82.0 L 108.1,80.7 L 108.6,79.4 L 109.0,78.0 L 109.3,76.6 L 109.5,75.2 L 109.7,73.8 L 109.7,72.5 L 109.7,71.2 L 109.6,69.9 L 109.4,68.7 L 109.1,67.5 L 108.8,66.5 L 108.3,65.6 L 107.8,64.7 L 107.3,64.0 L 106.6,63.4 L 105.9,62.9 L 105.2,62.6 L 99.5,60.7 L 100.2,61.0 L 100.9,61.5 L 101.5,62.1 L 102.1,62.8 L 102.6,63.6 L 103.1,64.6 L 103.4,65.6 L 103.7,66.7 L 103.9,68.0 L 104.0,69.2 L 104.0,70.6 L 103.9,71.9 L 103.8,73.3 L 103.6,74.7 L 103.2,76.1 L 102.8,77.5 L 102.4,78.8 L 101.8,80.1 L 101.2,81.4 L 100.6,82.5 L 99.8,83.6 L 99.1,84.6 L 98.3,85.5 L 97.5,86.2 L 96.6,86.9 L 95.7,87.4 L 94.9,87.7 L 94.0,88.0 L 93.2,88.1 L 92.4,88.0 L 91.6,87.8 Z" fill="white" stroke="none"/>
    <path d="M 97.3,89.8 L 98.1,90.0 L 98.9,90.0 L 99.8,89.9 L 100.6,89.7 L 101.5,89.3 L 102.3,88.8 L 103.2,88.1 L 104.0,87.4 L 104.8,86.5 L 105.6,85.5 L 106.3,84.4 L 107.0,83.3 L 107.6,82.0 L 108.1,80.7 L 108.6,79.4 L 109.0,78.0 L 109.3,76.6 L 109.5,75.2 L 109.7,73.8 L 109.7,72.5 L 109.7,71.2 L 109.6,69.9 L 109.4,68.7 L 109.1,67.5 L 108.8,66.5 L 108.3,65.6 L 107.8,64.7 L 107.3,64.0 L 106.6,63.4 L 105.9,62.9 L 105.2,62.6" fill="none" stroke="#222222" stroke-linecap="round" stroke-linejoin="round" stroke-width="1.5"/>
    <path d="M 91.6,87.8 L 92.4,88.0 L 93.2,88.1 L 94.0,88.0 L 94.9,87.7 L 95.7,87.4 L 96.6,86.9 L 97.5,86.2 L 98.3,85.5 L 99.1,84.6 L 99.8,83.6 L 100.6,82.5 L 101.2,81.4 L 101.8,80.1 L 102.4,78.8 L 102.8,77.5 L 103.2,76.1 L 103.6,74.7 L 103.8,73.3 L 103.9,71.9 L 104.0,70.6 L 104.0,69.2 L 103.9,68.0 L 103.7,66.7 L 103.4,65.6 L 103.1,64.6 L 102.6,63.6 L 102.1,62.8 L 101.5,62.1 L 100.9,61.5 L 100.2,61.0 L 99.5,60.7" fill="none" stroke="#222222" stroke-linecap="round" stroke-linejoin="round" stroke-width="1.5"/>
    <line stroke="#222222" stroke-linecap="round" stroke-width="1.5" x1="97.3" x2="91.6" y1="89.8" y2="87.8"/>
    <line stroke="#222222" stroke-linecap="round" stroke-width="1.5" x1="105.2" x2="99.5" y1="62.6" y2="60.7"/>
  </g>
  <g>
    <path d="M 92.9,82.6 L 93.1,83.8 L 93.4,84.9 L 93.8,85.9 L 94.2,86.9 L 94.7,87.7 L 95.3,88.4 L 95.9,89.0 L 96.6,89.4 L 97.3,89.8 L 91.6,87.8 L 90.9,87.5 L 90.2,87.1 L 89.5,86.5 L 89.0,85.8 L 88.5,84.9 L 88.0,84.0 L 87.7,83.0 L 87.4,81.8 L 87.2,80.6 Z" fill="white" stroke="none"/>
    <path d="M 105.2,62.6 L 104.4,62.4 L 103.5,62.4 L 102.7,62.5 L 101.8,62.8 L 100.9,63.2 L 100.0,63.7 L 99.1,64.4 L 98.3,65.2 L 92.6,63.3 L 93.4,62.5 L 94.3,61.8 L 95.2,61.3 L 96.1,60.8 L 96.9,60.6 L 97.8,60.5 L 98.7,60.5 L 99.5,60.7 Z" fill="white" stroke="none"/>
    <path d="M 92.9,82.6 L 93.1,83.8 L 93.4,84.9 L 93.8,85.9 L 94.2,86.9 L 94.7,87.7 L 95.3,88.4 L 95.9,89.0 L 96.6,89.4 L 97.3,89.8" fill="none" stroke="#222222" stroke-linecap="round" stroke-linejoin="round" stroke-width="1.5"/>
    <path d="M 87.2,80.6 L 87.4,81.8 L 87.7,83.0 L 88.0,84.0 L 88.5,84.9 L 89.0,85.8 L 89.5,86.5 L 90.2,87.1 L 90.9,87.5 L 91.6,87.8" fill="none" stroke="#222222" stroke-linecap="round" stroke-linejoin="round" stroke-width="1.5"/>
    <line stroke="#222222" stroke-linecap="round" stroke-width="1.5" x1="92.9" x2="87.2" y1="82.6" y2="80.6"/>
    <line stroke="#222222" stroke-linecap="round" stroke-width="1.5" x1="97.3" x2="91.6" y1="89.8" y2="87.8"/>
    <path d="M 105.2,62.6 L 104.4,62.4 L 103.5,62.4 L 102.7,62.5 L 101.8,62.8 L 100.9,63.2 L 100.0,63.7 L 99.1,64.4 L 98.3,65.2" fill="none" stroke="#222222" stroke-linecap="round" stroke-linejoin="round" stroke-width="1.5"/>
    <path d="M 99.5,60.7 L 98.7,60.5 L 97.8,60.5 L 96.9,60.6 L 96.1,60.8 L 95.2,61.3 L 94.3,61.8 L 93.4,62.5 L 92.6,63.3" fill="none" stroke="#222222" stroke-linecap="round" stroke-linejoin="round" stroke-width="1.5"/>
    <line stroke="#222222" stroke-linecap="round" stroke-width="1.5" x1="105.2" x2="99.5" y1="62.6" y2="60.7"/>
    <line stroke="#222222" stroke-linecap="round" stroke-width="1.5" x1="98.3" x2="92.6" y1="65.2" y2="63.3"/>
  </g>
  <line clip-path="url(#behind-clip)" stroke="#222222" stroke-linecap="round" stroke-width="1.5" x1="133.8" x2="86.6" y1="87.1" y2="71.3"/>
  <circle cx="86.6" cy="71.3" fill="#222222" r="5"/>
  <g>
    <path d="M 105.2,62.6 L 104.4,62.4 L 103.5,62.4 L 102.7,62.5 L 101.8,62.8 L 100.9,63.2 L 100.0,63.7 L 99.1,64.4 L 98.3,65.2 L 102.6,66.7 L 90.9,72.7 L 88.3,61.9 L 92.6,63.3 L 93.4,62.5 L 94.3,61.8 L 95.2,61.3 L 96.1,60.8 L 96.9,60.6 L 97.8,60.5 L 98.7,60.5 L 99.5,60.7 Z" fill="white" stroke="none"/>
    <path d="M 105.2,62.6 L 104.4,62.4 L 103.5,62.4 L 102.7,62.5 L 101.8,62.8 L 100.9,63.2 L 100.0,63.7 L 99.1,64.4 L 98.3,65.2" fill="none" stroke="#222222" stroke-linecap="round" stroke-linejoin="round" stroke-width="1.5"/>
    <path d="M 99.5,60.7 L 98.7,60.5 L 97.8,60.5 L 96.9,60.6 L 96.1,60.8 L 95.2,61.3 L 94.3,61.8 L 93.4,62.5 L 92.6,63.3" fill="none" stroke="#222222" stroke-linecap="round" stroke-linejoin="round" stroke-width="1.5"/>
    <line stroke="#222222" stroke-linecap="round" stroke-width="1.5" x1="105.2" x2="99.5" y1="62.6" y2="60.7"/>
    <path d="M 98.3,65.2 L 102.6,66.7 L 90.9,72.7 L 88.3,61.9 L 92.6,63.3" fill="white" stroke="#222222" stroke-linecap="round" stroke-linejoin="round" stroke-width="1.5"/>
  </g>
  <circle cx="159.1" cy="29.6" fill="#222222" r="5"/>
  <text dominant-baseline="central" fill="#222" font-family="sans-serif" font-size="18px" font-weight="bold" text-anchor="middle" x="159.1" y="11.600000000000001">U</text>
  <circle cx="159.1" cy="172.6" fill="#222222" r="5"/>
  <text dominant-baseline="central" fill="#222" font-family="sans-serif" font-size="18px" font-weight="bold" text-anchor="middle" x="159.1" y="190.6">D</text>
  <circle cx="99.7" cy="123.9" fill="#222222" r="5"/>
  <text dominant-baseline="central" fill="#222" font-family="sans-serif" font-size="18px" font-weight="bold" text-anchor="middle" x="83.45008360478352" y="131.6421067642131">F</text>
  <text dominant-baseline="central" fill="#222" font-family="sans-serif" font-size="18px" font-weight="bold" text-anchor="middle" x="243.136646636753" y="55.43010257511607">B</text>
  <circle cx="223.1" cy="117.1" fill="#222222" r="5"/>
  <text dominant-baseline="central" fill="#222" font-family="sans-serif" font-size="18px" font-weight="bold" text-anchor="middle" x="240.16748129769476" y="122.81848600180494">R</text>
  <text dominant-baseline="central" fill="#222" font-family="sans-serif" font-size="18px" font-weight="bold" text-anchor="middle" x="69.5309470698597" y="65.586206858131">L</text>
</svg>
