<?xml version="1.0" encoding="utf-8" ?>
<svg xmlns="http://www.w3.org/2000/svg" xmlns:ev="http://www.w3.org/2001/xml-events" xmlns:xlink="http://www.w3.org/1999/xlink" baseProfile="full" height="192px" version="1.1" viewBox="0 0 192 192" width="192px">
  <defs/>
  <rect fill="#FFFFFF" height="192" rx="8" ry="8" width="192" x="0" y="0"/>
  <rect fill="#C0C0C0" height="40" rx="4" ry="4" stroke="#333333" stroke-width="1.5" width="40" x="34" y="34"/>
  <rect fill="#FFD500" height="40" rx="4" ry="4" stroke="#333333" stroke-width="1.5" width="40" x="76" y="34"/>
  <rect fill="#C0C0C0" height="40" rx="4" ry="4" stroke="#333333" stroke-width="1.5" width="40" x="118" y="34"/>
  <rect fill="#FFD500" height="40" rx="4" ry="4" stroke="#333333" stroke-width="1.5" width="40" x="34" y="76"/>
  <rect fill="#FFD500" height="40" rx="4" ry="4" stroke="#333333" stroke-width="1.5" width="40" x="76" y="76"/>
  <rect fill="#FFD500" height="40" rx="4" ry="4" stroke="#333333" stroke-width="1.5" width="40" x="118" y="76"/>
  <rect fill="#C0C0C0" height="40" rx="4" ry="4" stroke="#333333" stroke-width="1.5" width="40" x="34" y="118"/>
  <rect fill="#FFD500" height="40" rx="4" ry="4" stroke="#333333" stroke-width="1.5" width="40" x="76" y="118"/>
  <rect fill="#C0C0C0" height="40" rx="4" ry="4" stroke="#333333" stroke-width="1.5" width="40" x="118" y="118"/>
  <rect fill="#C0C0C0" height="12" rx="2" ry="2" stroke="#333333" stroke-width="1" width="40" x="34" y="20"/>
  <rect fill="#C0C0C0" height="12" rx="2" ry="2" stroke="#333333" stroke-width="1" width="40" x="76" y="20"/>
  <rect fill="#C0C0C0" height="12" rx="2" ry="2" stroke="#333333" stroke-width="1" width="40" x="118" y="20"/>
  <rect fill="#C0C0C0" height="12" rx="2" ry="2" stroke="#333333" stroke-width="1" width="40" x="34" y="160"/>
  <rect fill="#C0C0C0" height="12" rx="2" ry="2" stroke="#333333" stroke-width="1" width="40" x="76" y="160"/>
  <rect fill="#C0C0C0" height="12" rx="2" ry="2" stroke="#333333" stroke-width="1" width="40" x="118" y="160"/>
  <rect fill="#FFD500" height="40" rx="2" ry="2" stroke="#333333" stroke-width="1" width="12" x="20" y="34"/>
  <rect fill="#C0C0C0" height="40" rx="2" ry="2" stroke="#333333" stroke-width="1" width="12" x="20" y="76"/>
  <rect fill="#FFD500" height="40" rx="2" ry="2" stroke="#333333" stroke-width="1" width="12" x="20" y="118"/>
  <rect fill="#FFD500" height="40" rx="2" ry="2" stroke="#333333" stroke-width="1" width="12" x="160" y="34"/>
  <rect fill="#C0C0C0" height="40" rx="2" ry="2" stroke="#333333" stroke-width="1" width="12" x="160" y="76"/>
  <rect fill="#FFD500" height="40" rx="2" ry="2" stroke="#333333" stroke-width="1" width="12" x="160" y="118"/>
</svg>
