<?xml version="1.0" encoding="utf-8" ?>
<svg xmlns="http://www.w3.org/2000/svg" xmlns:ev="http://www.w3.org/2001/xml-events" xmlns:xlink="http://www.w3.org/1999/xlink" baseProfile="full" height="276px" version="1.1" viewBox="0 0 276 276" width="276px">
  <defs>
    <style type="text/css"><![CDATA[.bg{fill:#FFFFFF}.paper{fill:#FFFFFF}.ink{fill:#222222}.ink-stroke{stroke:#222222}@media (prefers-color-scheme:light){.bg{fill:none}}@media (prefers-color-scheme:dark){.bg{fill:none}.paper{fill:#161412}.ink{fill:#ECE8E1}.ink-stroke{stroke:#ECE8E1}}]]></style>
  </defs>
  <rect class="bg" fill="#FFFFFF" height="276" rx="8" ry="8" width="276" x="0" y="0"/>
  <rect fill="#D8D5CF" height="40" rx="4" ry="4" stroke="#333333" stroke-width="1.5" width="40" x="34" y="34"/>
  <rect fill="#BEAB7A" height="40" rx="4" ry="4" stroke="#333333" stroke-width="1.5" width="40" x="76" y="34"/>
  <rect fill="#BEAB7A" height="40" rx="4" ry="4" stroke="#333333" stroke-width="1.5" width="40" x="118" y="34"/>
  <rect fill="#BEAB7A" height="40" rx="4" ry="4" stroke="#333333" stroke-width="1.5" width="40" x="160" y="34"/>
  <rect fill="#D8D5CF" height="40" rx="4" ry="4" stroke="#333333" stroke-width="1.5" width="40" x="202" y="34"/>
  <rect fill="#BEAB7A" height="40" rx="4" ry="4" stroke="#333333" stroke-width="1.5" width="40" x="34" y="76"/>
  <rect fill="#BEAB7A" height="40" rx="4" ry="4" stroke="#333333" stroke-width="1.5" width="40" x="76" y="76"/>
  <rect fill="#BEAB7A" height="40" rx="4" ry="4" stroke="#333333" stroke-width="1.5" width="40" x="118" y="76"/>
  <rect fill="#BEAB7A" height="40" rx="4" ry="4" stroke="#333333" stroke-width="1.5" width="40" x="160" y="76"/>
  <rect fill="#BEAB7A" height="40" rx="4" ry="4" stroke="#333333" stroke-width="1.5" width="40" x="202" y="76"/>
  <rect fill="#BEAB7A" height="40" rx="4" ry="4" stroke="#333333" stroke-width="1.5" width="40" x="34" y="118"/>
  <rect fill="#BEAB7A" height="40" rx="4" ry="4" stroke="#333333" stroke-width="1.5" width="40" x="76" y="118"/>
  <rect fill="#BEAB7A" height="40" rx="4" ry="4" stroke="#333333" stroke-width="1.5" width="40" x="118" y="118"/>
  <rect fill="#BEAB7A" height="40" rx="4" ry="4" stroke="#333333" stroke-width="1.5" width="40" x="160" y="118"/>
  <rect fill="#BEAB7A" height="40" rx="4" ry="4" stroke="#333333" stroke-width="1.5" width="40" x="202" y="118"/>
  <rect fill="#BEAB7A" height="40" rx="4" ry="4" stroke="#333333" stroke-width="1.5" width="40" x="34" y="160"/>
  <rect fill="#BEAB7A" height="40" rx="4" ry="4" stroke="#333333" stroke-width="1.5" width="40" x="76" y="160"/>
  <rect fill="#BEAB7A" height="40" rx="4" ry="4" stroke="#333333" stroke-width="1.5" width="40" x="118" y="160"/>
  <rect fill="#BEAB7A" height="40" rx="4" ry="4" stroke="#333333" stroke-width="1.5" width="40" x="160" y="160"/>
  <rect fill="#BEAB7A" height="40" rx="4" ry="4" stroke="#333333" stroke-width="1.5" width="40" x="202" y="160"/>
  <rect fill="#D8D5CF" height="40" rx="4" ry="4" stroke="#333333" stroke-width="1.5" width="40" x="34" y="202"/>
  <rect fill="#E00000" height="40" rx="4" ry="4" stroke="#333333" stroke-width="1.5" width="40" x="76" y="202"/>
  <rect fill="#BEAB7A" height="40" rx="4" ry="4" stroke="#333333" stroke-width="1.5" width="40" x="118" y="202"/>
  <rect fill="#E00000" height="40" rx="4" ry="4" stroke="#333333" stroke-width="1.5" width="40" x="160" y="202"/>
  <rect fill="#D8D5CF" height="40" rx="4" ry="4" stroke="#333333" stroke-width="1.5" width="40" x="202" y="202"/>
  <rect fill="#D8D5CF" height="12" rx="2" ry="2" stroke="#333333" stroke-width="1" width="40" x="34" y="20"/>
  <rect fill="#A07757" height="12" rx="2" ry="2" stroke="#333333" stroke-width="1" width="40" x="76" y="20"/>
  <rect fill="#A07757" height="12" rx="2" ry="2" stroke="#333333" stroke-width="1" width="40" x="118" y="20"/>
  <rect fill="#A07757" height="12" rx="2" ry="2" stroke="#333333" stroke-width="1" width="40" x="160" y="20"/>
  <rect fill="#D8D5CF" height="12" rx="2" ry="2" stroke="#333333" stroke-width="1" width="40" x="202" y="20"/>
  <rect fill="#D8D5CF" height="12" rx="2" ry="2" stroke="#333333" stroke-width="1" width="40" x="34" y="244"/>
  <rect fill="#FFD500" height="12" rx="2" ry="2" stroke="#333333" stroke-width="1" width="40" x="76" y="244"/>
  <rect fill="#CA8876" height="12" rx="2" ry="2" stroke="#333333" stroke-width="1" width="40" x="118" y="244"/>
  <rect fill="#FFD500" height="12" rx="2" ry="2" stroke="#333333" stroke-width="1" width="40" x="160" y="244"/>
  <rect fill="#D8D5CF" height="12" rx="2" ry="2" stroke="#333333" stroke-width="1" width="40" x="202" y="244"/>
  <rect fill="#D8D5CF" height="40" rx="2" ry="2" stroke="#333333" stroke-width="1" width="12" x="20" y="34"/>
  <rect fill="#797C9F" height="40" rx="2" ry="2" stroke="#333333" stroke-width="1" width="12" x="20" y="76"/>
  <rect fill="#797C9F" height="40" rx="2" ry="2" stroke="#333333" stroke-width="1" width="12" x="20" y="118"/>
  <rect fill="#797C9F" height="40" rx="2" ry="2" stroke="#333333" stroke-width="1" width="12" x="20" y="160"/>
  <rect fill="#D8D5CF" height="40" rx="2" ry="2" stroke="#333333" stroke-width="1" width="12" x="20" y="202"/>
  <rect fill="#D8D5CF" height="40" rx="2" ry="2" stroke="#333333" stroke-width="1" width="12" x="244" y="34"/>
  <rect fill="#9ABCA6" height="40" rx="2" ry="2" stroke="#333333" stroke-width="1" width="12" x="244" y="76"/>
  <rect fill="#9ABCA6" height="40" rx="2" ry="2" stroke="#333333" stroke-width="1" width="12" x="244" y="118"/>
  <rect fill="#9ABCA6" height="40" rx="2" ry="2" stroke="#333333" stroke-width="1" width="12" x="244" y="160"/>
  <rect fill="#D8D5CF" height="40" rx="2" ry="2" stroke="#333333" stroke-width="1" width="12" x="244" y="202"/>
</svg>
